<svg xmlns="http://www.w3.org/2000/svg" xmlns:xlink="http://www.w3.org/1999/xlink" viewBox="0 0 256 257"><defs><linearGradient id="a" x1="128" y1="1.38" x2="128" y2="246.63" gradientUnits="userSpaceOnUse"><stop offset="0" stop-color="#c1272d"/><stop offset="1" stop-color="#d4145a"/></linearGradient></defs><rect width="256" height="257" style="fill:url(#a)"/><polyline points="48 119 21.2 92.2 45.9 67.5" style="fill:none;stroke:#fff;stroke-miterlimit:10;stroke-width:13px"/><path d="M24.4,239.6V219.9h7.2a12,12,0,0,1,3.5.4,7,7,0,0,1,2.3,1,4.1,4.1,0,0,1,1.3,1.7,5.4,5.4,0,0,1,.4,2.2,5.3,5.3,0,0,1-.1,1.3l-.6,1.1a5.2,5.2,0,0,1-1.1,1,5.3,5.3,0,0,1-1.5.8,5.7,5.7,0,0,1,2.9,1.5,4,4,0,0,1,.9,2.7,6,6,0,0,1-.5,2.4,6.2,6.2,0,0,1-1.4,1.9,7.1,7.1,0,0,1-2.3,1.2,10.2,10.2,0,0,1-3.2.5Zm4.5-11.4h3.8l1-.4a1.9,1.9,0,0,0,.7-.8,3.6,3.6,0,0,0,.2-1.1,3.7,3.7,0,0,0-.2-1.2,2.2,2.2,0,0,0-.5-.8l-1-.4h-4Zm0,3v4.9h3.2l1.5-.2.9-.6a2.2,2.2,0,0,0,.5-.8,3.1,3.1,0,0,0,.1-1,2.9,2.9,0,0,0-.2-.9,1.2,1.2,0,0,0-.4-.8l-.9-.4-1.5-.2Z" transform="translate(0 0.5)" style="fill:#fff"/><path d="M49.3,235.9h7.3v3.7H44.8V219.9h4.5Z" transform="translate(0 0.5)" style="fill:#fff"/><path d="M79.8,229.7a10.5,10.5,0,0,1-.7,4,9.9,9.9,0,0,1-2.1,3.2,8.9,8.9,0,0,1-3.2,2.1,11.2,11.2,0,0,1-4.2.8,11.6,11.6,0,0,1-4.2-.8,9.4,9.4,0,0,1-5.3-5.3,10.5,10.5,0,0,1-.7-4,10,10,0,0,1,.7-3.9,8.9,8.9,0,0,1,2.1-3.2,12.1,12.1,0,0,1,3.2-2.2,11.6,11.6,0,0,1,4.2-.7,9.6,9.6,0,0,1,4.2.8,9.4,9.4,0,0,1,5.3,5.3A10,10,0,0,1,79.8,229.7Zm-4.6,0a10.1,10.1,0,0,0-.4-2.6,6.4,6.4,0,0,0-1.1-2,6.6,6.6,0,0,0-1.7-1.2,6,6,0,0,0-2.4-.5,5.6,5.6,0,0,0-2.3.5,5.7,5.7,0,0,0-1.8,1.2,9.5,9.5,0,0,0-1.1,2,10.3,10.3,0,0,0-.3,2.6,11.2,11.2,0,0,0,.3,2.7,8.6,8.6,0,0,0,1.1,1.9,4.6,4.6,0,0,0,1.8,1.3,5.6,5.6,0,0,0,2.3.4,6.1,6.1,0,0,0,2.4-.4,5.2,5.2,0,0,0,1.7-1.3,5.9,5.9,0,0,0,1.1-1.9A11,11,0,0,0,75.2,229.7Z" transform="translate(0 0.5)" style="fill:#fff"/><path d="M97.9,234.5h.4l.3.2,1.8,1.9a7,7,0,0,1-3,2.4,10.8,10.8,0,0,1-4.2.8,9.8,9.8,0,0,1-4-.8,9.5,9.5,0,0,1-3.1-2.1,10.1,10.1,0,0,1-1.9-3.2,12.5,12.5,0,0,1-.6-4,10.5,10.5,0,0,1,.7-4,8,8,0,0,1,2.2-3.2,8.9,8.9,0,0,1,3.2-2.1,11.2,11.2,0,0,1,4.2-.7,7.5,7.5,0,0,1,2.1.2l1.8.5,1.6.8a13.1,13.1,0,0,1,1.2,1.1l-1.5,2.1-.4.3-.5.2h-.5l-.5-.3-.5-.3-.7-.4-.9-.2-1.3-.2a5.4,5.4,0,0,0-2.2.5,5.7,5.7,0,0,0-1.8,1.2,4.9,4.9,0,0,0-1.1,2,7.5,7.5,0,0,0-.4,2.6,7.7,7.7,0,0,0,.4,2.7,4.9,4.9,0,0,0,1.1,2,6.1,6.1,0,0,0,1.6,1.2,4.9,4.9,0,0,0,2.1.4h1.1l1-.2.8-.4.8-.6.3-.2Z" transform="translate(0 0.5)" style="fill:#fff"/><path d="M109.7,227.9h.7a1.8,1.8,0,0,0,1.5-.7l4.4-6.4a1.8,1.8,0,0,1,.9-.7l1.1-.2h4l-5.9,7.9-.6.8-.7.4c.3.2.7.3.9.6l.8.8,6,9.2H118l-.5-.2-.3-.2-.3-.4-4.5-6.8c-.1-.3-.3-.4-.6-.6h-2.1v8.4h-4.5V219.9h4.5Z" transform="translate(0 0.5)" style="fill:#fff"/><path d="M146,223.9l-.4.5H145a1.1,1.1,0,0,1-.7-.2l-.8-.4-1-.4a2.7,2.7,0,0,0-1.3-.2,3.1,3.1,0,0,0-1.9.5,1.8,1.8,0,0,0-.7,1.5,1.8,1.8,0,0,0,.4,1l1,.7,1.4.5,1.6.5,1.6.7a3.6,3.6,0,0,1,1.4,1,3.1,3.1,0,0,1,1,1.5,4.1,4.1,0,0,1,.4,2.1,5.3,5.3,0,0,1-.5,2.5,5.7,5.7,0,0,1-1.3,2.1,8.3,8.3,0,0,1-2.2,1.4,9.4,9.4,0,0,1-3,.5l-1.9-.2-1.8-.5a9.1,9.1,0,0,1-1.7-.9,7.1,7.1,0,0,1-1.4-1l1.4-2.1.4-.4.6-.2.8.3.9.5,1.2.6a4.1,4.1,0,0,0,1.6.3,2.7,2.7,0,0,0,1.9-.6,1.9,1.9,0,0,0,.7-1.7,1.2,1.2,0,0,0-.4-1.1,2.1,2.1,0,0,0-1-.8l-1.4-.5-1.6-.4-1.6-.7a4.5,4.5,0,0,1-1.4-1,4.9,4.9,0,0,1-1-1.6,7.5,7.5,0,0,1-.3-2.3,5.2,5.2,0,0,1,.4-2.1,5,5,0,0,1,1.3-1.9,5.7,5.7,0,0,1,2.1-1.3,6.8,6.8,0,0,1,2.9-.5h1.8l1.6.4,1.4.7a3.8,3.8,0,0,1,1.2.9Z" transform="translate(0 0.5)" style="fill:#fff"/><path d="M156.9,235.9h7.3v3.7H152.4V219.9h4.5Z" transform="translate(0 0.5)" style="fill:#fff"/><path d="M174.1,239.6h-4.6V219.9h4.6Z" transform="translate(0 0.5)" style="fill:#fff"/><path d="M198.3,229.7a10.6,10.6,0,0,1-.8,4,7.9,7.9,0,0,1-2,3.1,9.6,9.6,0,0,1-3.2,2,11.6,11.6,0,0,1-4.2.8h-7.7V219.9h7.7a11.6,11.6,0,0,1,4.2.7,9.9,9.9,0,0,1,3.2,2.1,7.9,7.9,0,0,1,2,3.1A10.1,10.1,0,0,1,198.3,229.7Zm-4.7,0a7.1,7.1,0,0,0-.4-2.6,4.3,4.3,0,0,0-1.1-2,4.5,4.5,0,0,0-1.7-1.3,5.9,5.9,0,0,0-2.3-.4H185v12.7h3.1a5.9,5.9,0,0,0,2.3-.5,4.3,4.3,0,0,0,1.7-1.2,4.9,4.9,0,0,0,1.1-2A7.7,7.7,0,0,0,193.6,229.7Z" transform="translate(0 0.5)" style="fill:#fff"/><path d="M215.8,219.9v3.5h-8V228h6.1v3.4h-6.1v4.7h8v3.5H203.2V219.9Z" transform="translate(0 0.5)" style="fill:#fff"/><path d="M225.7,232.3v7.3h-4.6V219.9h6.4a13.5,13.5,0,0,1,3.7.4,5.5,5.5,0,0,1,2.4,1.3,4.9,4.9,0,0,1,1.4,1.8,5.9,5.9,0,0,1,.4,2.3,9,9,0,0,1-.2,1.8,8,8,0,0,1-.8,1.6,4.9,4.9,0,0,1-1.2,1.3,5.6,5.6,0,0,1-1.7.9l.8.6a2.7,2.7,0,0,1,.7.8l4.2,6.9h-4.1a1.9,1.9,0,0,1-1.7-.9l-3.2-5.7-.5-.6h-2Zm0-3.2h1.8a3.9,3.9,0,0,0,1.6-.2,4.1,4.1,0,0,0,1.1-.7,1.8,1.8,0,0,0,.6-.9,5,5,0,0,0,.2-1.2,2.6,2.6,0,0,0-.9-2.1,4.3,4.3,0,0,0-2.6-.7h-1.8Z" transform="translate(0 0.5)" style="fill:#fff"/><path d="M43.2,181.8l-.6.3a1.2,1.2,0,0,1-.8-.4l-1.2-.9-2-.9a8.4,8.4,0,0,0-2.9-.5,9.6,9.6,0,0,0-3.1.5,6.9,6.9,0,0,0-2.2,1.4,5.3,5.3,0,0,0-1.3,2,5.9,5.9,0,0,0-.5,2.3,4.5,4.5,0,0,0,.7,2.7,5.2,5.2,0,0,0,1.8,1.8l2.6,1.3,2.9,1,2.9,1a11,11,0,0,1,2.6,1.5,6.8,6.8,0,0,1,1.8,2.3,6.1,6.1,0,0,1,.7,3.2,9.5,9.5,0,0,1-.7,3.8,7.9,7.9,0,0,1-2,3.1,10.3,10.3,0,0,1-3.2,2,11.4,11.4,0,0,1-4.3.8A12.7,12.7,0,0,1,29,209a13.5,13.5,0,0,1-4-3.1l.6-1a.9.9,0,0,1,.7-.3l.5.3.7.6,1.1.9a5.3,5.3,0,0,0,1.5.8,8.4,8.4,0,0,0,1.9.7,9,9,0,0,0,2.5.3,8.8,8.8,0,0,0,3.3-.6,7.6,7.6,0,0,0,2.6-1.6,6.1,6.1,0,0,0,1.5-2.3,7.2,7.2,0,0,0,.6-2.9,5.5,5.5,0,0,0-.7-2.8,7.7,7.7,0,0,0-1.8-1.8l-2.6-1.3-2.9-.9-3-1.1a10.4,10.4,0,0,1-2.5-1.5,6.2,6.2,0,0,1-1.9-2.3,8.3,8.3,0,0,1-.6-3.4,7.7,7.7,0,0,1,.6-3,8,8,0,0,1,1.8-2.7,9.7,9.7,0,0,1,2.8-1.8,12.1,12.1,0,0,1,8.4.1,10.3,10.3,0,0,1,3.6,2.4Z" transform="translate(0 0.5)" style="fill:#fff"/><path d="M81.5,208.1a10.7,10.7,0,0,0,4.1-.8,9.7,9.7,0,0,0,3.1-2.2,10.3,10.3,0,0,0,1.9-3.4,13.5,13.5,0,0,0,.7-4.1V177.9h2.3v19.7a13.3,13.3,0,0,1-.9,4.9,11,11,0,0,1-2.4,4,10.3,10.3,0,0,1-3.8,2.6,13,13,0,0,1-10,0,10.3,10.3,0,0,1-3.8-2.6,11,11,0,0,1-2.4-4,13.3,13.3,0,0,1-.9-4.9V177.9h2.4v19.7a14,14,0,0,0,.6,4.1,10.6,10.6,0,0,0,1.9,3.3,10,10,0,0,0,3.1,2.3A10.7,10.7,0,0,0,81.5,208.1Z" transform="translate(0 0.5)" style="fill:#fff"/><path d="M124.2,196.9v12.8h-2.3V177.9h8.2q5.6,0,8.4,2.4a8.9,8.9,0,0,1,2.9,7,10.1,10.1,0,0,1-.8,3.9,8.4,8.4,0,0,1-2.2,3,10.5,10.5,0,0,1-3.6,2,14.1,14.1,0,0,1-4.7.7Zm0-1.8h5.9a11.6,11.6,0,0,0,3.8-.6,10.8,10.8,0,0,0,2.8-1.6,8.8,8.8,0,0,0,1.8-2.5,7.8,7.8,0,0,0,.6-3.1,7.1,7.1,0,0,0-2.3-5.6c-1.5-1.3-3.7-2-6.7-2h-5.9Z" transform="translate(0 0.5)" style="fill:#fff"/><path d="M185.4,177.9v1.9H168.7v12.9h13.9v1.8H168.7v13.3h16.7v1.9H166.3V177.9Z" transform="translate(0 0.5)" style="fill:#fff"/><path d="M214.4,195.3v14.4h-2.3V177.9h8.1c3.7,0,6.4.7,8.2,2.1a7.5,7.5,0,0,1,2.7,6.3,8.8,8.8,0,0,1-.6,3.3,6.8,6.8,0,0,1-1.8,2.6,9.2,9.2,0,0,1-2.8,1.9,15.1,15.1,0,0,1-3.8,1,2.8,2.8,0,0,1,1,.9L234,209.7h-2.6a1.2,1.2,0,0,1-.5-.5l-10.2-12.9-.8-.7-1.4-.2Zm0-1.7h5.5a14.6,14.6,0,0,0,3.8-.5,8.2,8.2,0,0,0,2.8-1.4,6.6,6.6,0,0,0,1.8-2.3,7.3,7.3,0,0,0,.6-3c0-2.3-.7-4-2.2-5a10.9,10.9,0,0,0-6.5-1.7h-5.8Z" transform="translate(0 0.5)" style="fill:#fff"/><path d="M87.3,78.2l73.3,42.3,8.1-4.7v-9.4L95.4,64.1l-8.1,4.7ZM128,139.3l16.3-9.4L71,87.6V59.4l57-32.9,57,32.9V78.2L128,45.3l-16.3,9.4L185,97v28.2l-57,32.9L71,125.2V106.4Z" transform="translate(0 0.5)" style="fill:#fff"/><polyline points="208.9 67.5 235.7 94.3 211 119" style="fill:none;stroke:#fff;stroke-miterlimit:10;stroke-width:13px"/></svg>